<?xml version="1.0" encoding="UTF-8" standalone="no"?>
<!DOCTYPE svg PUBLIC "-//W3C//DTD SVG 1.1//EN" "http://www.w3.org/Graphics/SVG/1.1/DTD/svg11.dtd">
<svg width="1028px" height="1028px" version="1.1" xmlns="http://www.w3.org/2000/svg" xmlns:xlink="http://www.w3.org/1999/xlink" xml:space="preserve" xmlns:serif="http://www.serif.com/" style="fill-rule:evenodd;clip-rule:evenodd;stroke-linejoin:round;stroke-miterlimit:2;">
    <g transform="matrix(1.09008,0,0,1.09008,-69.2793,-29.4088)">
        <g transform="matrix(1,0,0,1,17,0)">
            <path d="M518.082,85.483C746.035,85.483 931.104,270.552 931.104,498.506C931.104,726.459 746.035,911.528 518.082,911.528C290.128,911.528 105.059,726.459 105.059,498.506C105.059,270.552 290.128,85.483 518.082,85.483ZM518.082,151.591C709.549,151.591 864.996,307.038 864.996,498.506C864.996,689.973 709.549,845.42 518.082,845.42C326.614,845.42 171.167,689.973 171.167,498.506C171.167,307.038 326.614,151.591 518.082,151.591Z" style="fill:white;"/>
        </g>
        <path d="M285.465,314.45L535.082,813.581L786.277,305.365C786.277,305.365 658.189,216.728 601.464,326.665C544.739,436.603 534.369,465.286 534.369,465.286L469.692,328.757C469.692,328.757 405.278,209.615 285.465,314.45Z" style="fill:white;"/>
    </g>
</svg>
